<svg xmlns="http://www.w3.org/2000/svg" viewBox="0 0 19.82 14.67"><defs><style>.cls-1{fill:#003b91;fill-rule:evenodd;}.cls-2{fill:none;stroke:#fff;stroke-width:1.19px;}.cls-3{fill:#fff;}</style></defs><title>a66Element 5</title><g id="Ebene_2" data-name="Ebene 2"><g id="Namen_Kopie" data-name="Namen Kopie"><path class="cls-1" d="M11.2,14a9.8,9.8,0,0,1-2.59,0L1.89,12.92A1.59,1.59,0,0,1,.59,11.4V3.27A1.59,1.59,0,0,1,1.89,1.75L8.61.68a9.84,9.84,0,0,1,2.59,0l6.73,1.07a1.59,1.59,0,0,1,1.29,1.52V11.4a1.59,1.59,0,0,1-1.29,1.52Z"/><path class="cls-2" d="M11.2,14a9.8,9.8,0,0,1-2.59,0L1.89,12.92A1.59,1.59,0,0,1,.59,11.4V3.27A1.59,1.59,0,0,1,1.89,1.75L8.61.68a9.84,9.84,0,0,1,2.59,0l6.73,1.07a1.59,1.59,0,0,1,1.29,1.52V11.4a1.59,1.59,0,0,1-1.29,1.52Z"/><path class="cls-3" d="M7.65,9.38,7.5,8.86a0,0,0,0,0,0,0H6.1a0,0,0,0,0,0,0l-.16.52a.11.11,0,0,1-.11.08H5.17a.09.09,0,0,1-.07,0,.08.08,0,0,1,0-.08l1.18-3.7a.1.1,0,0,1,.11-.08h.82a.1.1,0,0,1,.11.08l1.18,3.7a.07.07,0,0,1,0,0,.07.07,0,0,1,0,.05l-.06,0H7.76A.11.11,0,0,1,7.65,9.38ZM6.29,8.23h1s0,0,0,0L6.8,6.5s0,0,0,0l0,0L6.26,8.19S6.27,8.23,6.29,8.23Z"/><path class="cls-3" d="M11.54,8.21a1.5,1.5,0,0,1-.11.58,1.13,1.13,0,0,1-.45.52,1.47,1.47,0,0,1-1.46,0,1.12,1.12,0,0,1-.45-.55A1.42,1.42,0,0,1,9,8.21V6.54A.92.92,0,0,1,9.13,6a1,1,0,0,1,.44-.35,1.6,1.6,0,0,1,.65-.12,1.54,1.54,0,0,1,.64.13,1,1,0,0,1,.43.35.9.9,0,0,1,.15.52v.13a.08.08,0,0,1-.09.09h-.59l-.07,0a.05.05,0,0,1,0,0V6.63a.41.41,0,0,0-.12-.31.43.43,0,0,0-.32-.12.47.47,0,0,0-.34.13.42.42,0,0,0-.13.32v.51s0,0,0,0h0a.93.93,0,0,1,.6-.19,1.16,1.16,0,0,1,.6.15,1.06,1.06,0,0,1,.41.44A1.36,1.36,0,0,1,11.54,8.21Zm-.78,0a.68.68,0,0,0-.09-.37.45.45,0,0,0-.41-.22.43.43,0,0,0-.42.23.75.75,0,0,0-.08.37.73.73,0,0,0,.07.34.48.48,0,0,0,.84,0A.69.69,0,0,0,10.75,8.22Z"/><path class="cls-3" d="M14.72,8.21a1.5,1.5,0,0,1-.11.58,1.13,1.13,0,0,1-.45.52,1.47,1.47,0,0,1-1.46,0,1.12,1.12,0,0,1-.45-.55,1.42,1.42,0,0,1-.1-.54V6.54A.92.92,0,0,1,12.31,6a1,1,0,0,1,.44-.35,1.6,1.6,0,0,1,.65-.12,1.54,1.54,0,0,1,.64.13,1,1,0,0,1,.43.35.9.9,0,0,1,.15.52v.13a.08.08,0,0,1-.09.09h-.59l-.07,0a.05.05,0,0,1,0,0V6.63a.41.41,0,0,0-.12-.31.43.43,0,0,0-.32-.12.47.47,0,0,0-.34.13.42.42,0,0,0-.13.32v.51s0,0,0,0h0a.93.93,0,0,1,.6-.19,1.16,1.16,0,0,1,.6.15,1.06,1.06,0,0,1,.41.44A1.36,1.36,0,0,1,14.72,8.21Zm-.78,0a.68.68,0,0,0-.09-.37.45.45,0,0,0-.41-.22.43.43,0,0,0-.42.23.75.75,0,0,0-.08.37.73.73,0,0,0,.07.34.48.48,0,0,0,.84,0A.69.69,0,0,0,13.93,8.22Z"/></g></g></svg>