<svg xmlns="http://www.w3.org/2000/svg" viewBox="0 0 19.82 14.67"><defs><style>.cls-1{fill:#003b91;fill-rule:evenodd;}.cls-2{fill:none;stroke:#fff;stroke-width:1.19px;}.cls-3{fill:#fff;}</style></defs><title>a661Element 5</title><g id="Ebene_2" data-name="Ebene 2"><g id="Namen_Kopie" data-name="Namen Kopie"><path class="cls-1" d="M11.2,14a9.84,9.84,0,0,1-2.59,0L1.89,12.92A1.59,1.59,0,0,1,.59,11.4V3.27A1.59,1.59,0,0,1,1.89,1.75L8.61.68a9.84,9.84,0,0,1,2.59,0l6.73,1.07a1.59,1.59,0,0,1,1.29,1.52V11.4a1.59,1.59,0,0,1-1.29,1.52Z"/><path class="cls-2" d="M11.2,14a9.84,9.84,0,0,1-2.59,0L1.89,12.92A1.59,1.59,0,0,1,.59,11.4V3.27A1.59,1.59,0,0,1,1.89,1.75L8.61.68a9.84,9.84,0,0,1,2.59,0l6.73,1.07a1.59,1.59,0,0,1,1.29,1.52V11.4a1.59,1.59,0,0,1-1.29,1.52Z"/><path class="cls-3" d="M6.61,9.38l-.16-.52a0,0,0,0,0,0,0H5.07a0,0,0,0,0,0,0l-.16.52a.1.1,0,0,1-.11.08H4.13a.08.08,0,0,1-.07,0,.08.08,0,0,1,0-.08l1.18-3.7a.1.1,0,0,1,.11-.08h.82a.1.1,0,0,1,.11.08l1.18,3.7a.07.07,0,0,1,0,0,.07.07,0,0,1,0,.05l-.06,0H6.72A.1.1,0,0,1,6.61,9.38ZM5.25,8.23h1s0,0,0,0L5.77,6.5s0,0,0,0l0,0L5.23,8.19S5.23,8.23,5.25,8.23Z"/><path class="cls-3" d="M10.5,8.21a1.5,1.5,0,0,1-.11.58,1.13,1.13,0,0,1-.45.52,1.47,1.47,0,0,1-1.46,0A1.12,1.12,0,0,1,8,8.75a1.43,1.43,0,0,1-.1-.54V6.54A.92.92,0,0,1,8.09,6a1,1,0,0,1,.44-.35,1.6,1.6,0,0,1,.65-.12,1.54,1.54,0,0,1,.64.12,1,1,0,0,1,.43.35.9.9,0,0,1,.15.52v.13a.08.08,0,0,1-.09.09H9.72l-.07,0a.05.05,0,0,1,0,0V6.63a.41.41,0,0,0-.12-.31.43.43,0,0,0-.32-.12.47.47,0,0,0-.34.13.42.42,0,0,0-.13.32v.51s0,0,0,0h0A.92.92,0,0,1,9.36,7a1.16,1.16,0,0,1,.6.15,1.06,1.06,0,0,1,.41.44A1.36,1.36,0,0,1,10.5,8.21Zm-.78,0a.69.69,0,0,0-.09-.37.45.45,0,0,0-.41-.22.43.43,0,0,0-.42.23.75.75,0,0,0-.08.37.73.73,0,0,0,.07.34.48.48,0,0,0,.84,0A.69.69,0,0,0,9.72,8.22Z"/><path class="cls-3" d="M13.68,8.21a1.5,1.5,0,0,1-.11.58,1.13,1.13,0,0,1-.45.52,1.47,1.47,0,0,1-1.46,0,1.12,1.12,0,0,1-.45-.55,1.43,1.43,0,0,1-.1-.54V6.54A.92.92,0,0,1,11.27,6a1,1,0,0,1,.44-.35,1.6,1.6,0,0,1,.65-.12,1.54,1.54,0,0,1,.64.12,1,1,0,0,1,.43.35.9.9,0,0,1,.15.52v.13a.08.08,0,0,1-.09.09H12.9l-.07,0a.05.05,0,0,1,0,0V6.63a.41.41,0,0,0-.12-.31.43.43,0,0,0-.32-.12.47.47,0,0,0-.34.13.42.42,0,0,0-.13.32v.51s0,0,0,0h0a.92.92,0,0,1,.6-.19,1.16,1.16,0,0,1,.6.15,1.06,1.06,0,0,1,.41.44A1.36,1.36,0,0,1,13.68,8.21Zm-.78,0a.69.69,0,0,0-.09-.37.45.45,0,0,0-.41-.22.43.43,0,0,0-.42.23.75.75,0,0,0-.08.37.73.73,0,0,0,.07.34.48.48,0,0,0,.84,0A.69.69,0,0,0,12.9,8.22Z"/><path class="cls-3" d="M14.91,5.57h.63a.08.08,0,0,1,.09.09V9.36a.08.08,0,0,1-.09.09h-.59a.08.08,0,0,1-.09-.09v-3a0,0,0,0,0,0,0h0l-.49.1h0a.07.07,0,0,1-.08-.08V5.9a.1.1,0,0,1,.07-.11l.5-.2Z"/></g></g></svg>