<svg id="Gebäude" xmlns="http://www.w3.org/2000/svg" viewBox="0 0 10.62 14.1"><defs><style>.cls-1{stroke:#fff;stroke-miterlimit:10;stroke-width:0.05px;}</style></defs><title>gebaeude-icon</title><polygon class="cls-1" points="0.78 1.91 4.27 1.34 4.27 14.08 0.78 14.08 0.78 1.91"/><polygon class="cls-1" points="5.43 1.23 9.23 0.52 9.43 14.08 5.43 14.08 5.43 1.23"/><path class="cls-1" d="M446.49,325.83c-.07,0-1,.11-1,.11l.19,12.42h.8Z" transform="translate(-436.26 -324.29)"/><polygon class="cls-1" points="10.6 2.48 10.23 1.55 10.23 14.08 10.6 14.08 10.6 2.48"/><polygon class="cls-1" points="9.74 1.61 9.23 0.52 9.24 1.66 9.74 1.61"/><polygon class="cls-1" points="0.78 2.87 0.03 2.98 0.14 14.08 0.78 14.08 0.78 2.87"/><polygon class="cls-1" points="4.84 1.03 4.27 1.34 4.27 14.08 5.43 14.08 5.43 1.23 4.84 1.03"/><polygon class="cls-1" points="3.24 1.51 3.24 0.79 3.44 0.65 3.6 0.56 3.78 0.52 3.78 1.42 3.24 1.51"/><polygon class="cls-1" points="6.27 0.1 6.54 0.1 6.71 0.1 6.92 0.2 7.12 0.39 7.25 0.52 7.25 0.89 6.27 1.07 6.27 0.1"/><polygon class="cls-1" points="4.92 0.03 5.56 0.03 5.87 0.03 6.1 0.06 6.27 0.1 6.27 1.07 5.43 1.23 4.84 1.03 4.27 1.34 3.78 1.42 3.78 0.52 3.93 0.39 4.16 0.26 4.42 0.14 4.68 0.05 4.92 0.03"/></svg>