<svg xmlns="http://www.w3.org/2000/svg" viewBox="0 0 5.75 5.75"><defs><style>.cls-1{fill:#ff9100;}.cls-2{fill:#fff;}</style></defs><title>tramElement 3</title><g id="Ebene_2" data-name="Ebene 2"><g id="Bahn"><rect class="cls-1" width="5.75" height="5.75"/><path class="cls-2" d="M5.27,4.32V2.66A.31.31,0,0,0,5,2.34H2.33l.6-.59L2,.83l-.92.91.6.59H.86c-.2,0-.25.12-.28.32L.38,4.32a.21.21,0,0,0,.2.24H.81a.32.32,0,0,0,.61,0,.31.31,0,0,0,.3.24A.32.32,0,0,0,2,4.48l0-.12H3.58l0,.12a.32.32,0,0,0,.31.32.32.32,0,0,0,.31-.24.31.31,0,0,0,.3.24.32.32,0,0,0,.31-.24H5a.21.21,0,0,0,.24-.24M5,4.09H4.36V2.66H5Zm-.91-.71H3.44V2.66h.68ZM2.6,1.74,2,2.34l-.6-.59.6-.6Zm.6,1.63H2.53V2.66H3.2Zm-.91,0H1.61V2.66h.68Zm-.92.71H.66L.82,2.66h.56Z"/></g></g></svg>