<svg xmlns="http://www.w3.org/2000/svg" viewBox="0 0 121.15 167.25"><defs><style>.cls-1{fill:#fff;}.cls-2{opacity:0.2;}</style></defs><title>uniElement 2</title><g id="Ebene_2" data-name="Ebene 2"><g id="Ebene_3" data-name="Ebene 3"><path class="cls-1" d="M0,1.48,1.11,0,73.35,18l37.53,64.31-1.08,1.56L70.27,74,67,82.51l-.57,1L12.27,43.34a7.38,7.38,0,0,1,1.67-2.08c.67-.33,25.92-14.17,25.92-14.17L25.6,22.68,0,1.48"/></g><g id="Isolationsmodus"><path d="M66.54,82.8a5.55,5.55,0,0,0-1-1.89,45.78,45.78,0,0,0-5.37-5.66c-2.38-2.2-5.25-4.66-8.39-7.23-1.56-1.29-3.22-2.57-4.89-3.9s-3.39-2.62-5.13-3.92-3.46-2.59-5.19-3.83-3.43-2.46-5.11-3.6-3.29-2.24-4.85-3.25-3-1.95-4.43-2.78a45.68,45.68,0,0,0-6.93-3.57,5.54,5.54,0,0,0-2.1-.45,1,1,0,0,0-.69.28c-1.58,2.11,9.23,12.89,24.15,24.08S64.87,85.65,66.45,83.54A1,1,0,0,0,66.54,82.8Z"/><path d="M109.81,83.88,72.27,19.54,0,1.48,19.07,34.18,12.44,43a1,1,0,0,1,.68-.38,5.36,5.36,0,0,1,2.22.2,37.29,37.29,0,0,1,7.34,3c1.46.74,3,1.58,4.64,2.53s3.32,2,5,3.07,3.49,2.26,5.24,3.5,3.52,2.51,5.27,3.8,3.46,2.66,5.13,4,3.28,2.71,4.83,4.05a111.44,111.44,0,0,1,8.08,7.72,37.25,37.25,0,0,1,4.92,6.21,5.36,5.36,0,0,1,.81,2.08,1,1,0,0,1-.18.76L79.53,64.05a2.18,2.18,0,0,0,.13-2.2c-1.75-3.45-6.64-11.23-21.16-24C73.65,48.47,84.23,59.85,82.65,62L73.09,74.7Z"/><path d="M1.11,0C13.21,2.81,25.28,5.72,37.34,8.65L73.5,17.57l.2.05.11.18L92.48,50l9.26,16.16,9.17,16.21-9.6-16-9.5-16L73,18.3l.31.23L37.16,9.4C25.13,6.31,13.11,3.21,1.11,0Z"/><path d="M92.43,132.34c-13-15.4-11.4-46-3.51-57l1.63,1.16C83,87,81.51,116.29,94,131Z"/><circle cx="93.3" cy="131.74" r="2.09" transform="translate(-59.56 183.65) rotate(-73.45)"/><path d="M93.5,131l16.24,5.58a16,16,0,0,1-11.4,12.6l-5.65-17Z"/><ellipse class="cls-2" cx="73.51" cy="142.04" rx="47.64" ry="25.21"/></g></g></svg>