<svg xmlns="http://www.w3.org/2000/svg" viewBox="0 0 1123.02 813.59"><defs><style>.cls-1{opacity:0.2;}.cls-2{fill:#0f0f0f;}.cls-3{fill:#fff;}</style></defs><title>bibliothekElement 2</title><g id="Ebene_2" data-name="Ebene 2"><g id="Capa_1" data-name="Capa 1"><ellipse class="cls-1" cx="561.51" cy="665.22" rx="561.51" ry="148.38"/><path class="cls-2" d="M1025,107.85a18.67,18.67,0,0,0,15.11-18.33V55a18.68,18.68,0,0,0-16.56-18.56L713.24,2.79C679.5-1.88,625.16-.6,591.64,6L181.89,70.43C128.6,67.73,78,100.42,61,153.62a119,119,0,0,0,7.62,91.7A121.81,121.81,0,0,0,98.73,282.8,119.92,119.92,0,0,0,65.8,432.74a118.53,118.53,0,0,0,32.33,38.89,120.33,120.33,0,0,0,38,209L431.53,775c16.16,5.16,42.73,6.33,59.38,2.46l534.21-105.63a18.68,18.68,0,0,0,15-18.3V628.46a18.66,18.66,0,0,0-19.46-18.64V484.39l4.5-.89a18.68,18.68,0,0,0,15-18.3V440.11a18.66,18.66,0,0,0-19.46-18.64V297.73l4.5-.89a18.68,18.68,0,0,0,15-18.3v-25.1a18.66,18.66,0,0,0-19.46-18.64V108.69ZM119.69,172.36c9.84-30.83,42.88-48,73.32-38.2l169.64,57.07c9.22,4,41.48,16,96.41,15.18V339.5a108.37,108.37,0,0,1-22-4.1L157.78,246.16a58.75,58.75,0,0,1-38.08-73.8Zm-2.94,187.3a59,59,0,0,1,73.92-38.08c0-.12,173.15,55.18,243.65,77.67a109.77,109.77,0,0,0,24.74,4.38V527.05a112.33,112.33,0,0,1-24.86-4.35L154.84,433.46A59,59,0,0,1,120.5,404.4,58.38,58.38,0,0,1,116.75,359.66Zm38.08,262.27a59,59,0,0,1-34.34-29.06,58.38,58.38,0,0,1-3.75-44.74A59,59,0,0,1,190.67,510c.12-.33,170.9,54.25,240.86,76.5,7.58,2.42,17.46,3.95,27.52,4.52V715.52a111.93,111.93,0,0,1-24.86-4.34Zm856.1-10.44L493.61,713.66a110.4,110.4,0,0,1-24.87,2.25V591.32a107.7,107.7,0,0,0,22.17-2.19l520-102.82Zm0-188.35L493.61,525.28a112.13,112.13,0,0,1-24.87,2.18V404a112.2,112.2,0,0,0,25-2.21l517.21-102.18Zm0-186.67L496.42,337.86c-7.77,1.8-17.67,2.5-27.69,2.22v-134c26-1.08,56.54-5,91.74-13.72,97.44-24.14,333.28-59.91,450.46-81.87Z"/><path class="cls-3" d="M119.69,172.36c9.84-30.83,42.88-48,73.32-38.2l169.64,57.07c9.22,4,41.48,16,96.41,15.18V339.5a108.37,108.37,0,0,1-22-4.1L157.78,246.16a58.75,58.75,0,0,1-38.08-73.8Z"/><path class="cls-3" d="M116.75,359.66a59,59,0,0,1,73.92-38.08c0-.12,173.15,55.18,243.65,77.67a109.77,109.77,0,0,0,24.74,4.38V527.05a112.33,112.33,0,0,1-24.86-4.35L154.84,433.46A59,59,0,0,1,120.5,404.4,58.38,58.38,0,0,1,116.75,359.66Z"/><path class="cls-3" d="M154.84,621.93a59,59,0,0,1-34.34-29.06,58.38,58.38,0,0,1-3.75-44.74A59,59,0,0,1,190.67,510c.12-.33,170.9,54.25,240.86,76.5,7.58,2.42,17.46,3.95,27.52,4.52V715.52a111.93,111.93,0,0,1-24.86-4.34Z"/><path class="cls-3" d="M1022.93,609.49,493.61,713.66c-7,1.62-26.83,2.34-35.87,2.25V591.32c8.08-.05,26.84-.76,33.17-3.19L1023,483.9Z"/><path class="cls-3" d="M1022.93,421.14,493.61,525.28c-7,1.58-26.83,2.28-35.87,2.18V404c9.1.1,29-.62,36-2.21l529.21-104.18Z"/><path class="cls-3" d="M1021.93,234.47,496.42,337.86c-7.77,1.8-27.67,2.5-37.69,2.22v-134c26-1.08,66.54-5,101.74-13.72,97.44-24.14,344.28-61.91,461.46-83.87Z"/></g></g></svg>