<?xml version="1.0" encoding="utf-8"?>
<!-- Generator: Adobe Illustrator 16.0.0, SVG Export Plug-In . SVG Version: 6.00 Build 0)  -->
<!DOCTYPE svg PUBLIC "-//W3C//DTD SVG 1.1//EN" "http://www.w3.org/Graphics/SVG/1.1/DTD/svg11.dtd">
<svg version="1.1" id="Ebene_1" xmlns="http://www.w3.org/2000/svg" xmlns:xlink="http://www.w3.org/1999/xlink" x="0px" y="0px"
	 width="841.89px" height="595.28px" viewBox="0 0 841.89 595.28" enable-background="new 0 0 841.89 595.28" xml:space="preserve">
<path d="M420.685,305.26c4.305,0,7.795-3.49,7.795-7.795s-3.49-7.795-7.795-7.795s-7.795,3.49-7.795,7.795
	S416.38,305.26,420.685,305.26"/>
<path fill="#FFFFFF" d="M419.984,296.011h-0.969v-3.391h-0.969v3.391h-0.968v-3.391h-0.97v3.391c0,1.027,0.804,1.86,1.817,1.923
	v4.375h1.211v-4.375c1.012-0.062,1.816-0.896,1.816-1.923v-3.391h-0.969V296.011z M422.405,294.558v3.875h1.211v3.876h1.212v-9.689
	C423.491,292.62,422.405,293.706,422.405,294.558"/>
</svg>
