<svg xmlns="http://www.w3.org/2000/svg" viewBox="0 0 33.85 36.68"><defs><style>.cls-1{stroke:#fff;stroke-miterlimit:10;stroke-width:0.05px;}.cls-2{fill:#fff;}</style></defs><title>gebaeude-uniElement 1</title><g id="Ebene_2" data-name="Ebene 2"><g id="Gebäude"><polygon class="cls-1" points="5.17 12.79 12.02 11.67 12.02 36.65 5.17 36.65 5.17 12.79"/><polygon class="cls-1" points="14.29 11.44 21.73 10.06 22.14 36.65 14.29 36.65 14.29 11.44"/><path class="cls-1" d="M23.7,12.07c-.13,0-1.94.22-1.94.22l.37,24.36H23.7Z"/><polygon class="cls-1" points="24.42 13.91 23.7 12.07 23.7 36.65 24.42 36.65 24.42 13.91"/><polygon class="cls-1" points="22.74 12.2 21.73 10.06 21.77 12.29 22.74 12.2"/><polygon class="cls-1" points="5.17 14.67 3.69 14.89 3.91 36.65 5.17 36.65 5.17 14.67"/><polygon class="cls-1" points="13.14 11.06 12.02 11.67 12.02 36.65 14.29 36.65 14.29 11.44 13.14 11.06"/><polygon class="cls-1" points="9.99 12 9.99 10.58 10.38 10.31 10.7 10.13 11.06 10.06 11.06 11.82 9.99 12"/><polygon class="cls-1" points="15.94 9.23 16.47 9.23 16.8 9.23 17.21 9.44 17.6 9.81 17.85 10.06 17.85 10.78 15.94 11.14 15.94 9.23"/><polygon class="cls-1" points="13.29 9.09 14.55 9.09 15.16 9.09 15.59 9.16 15.94 9.23 15.94 11.14 14.29 11.44 13.14 11.06 12.02 11.67 11.06 11.82 11.06 10.06 11.35 9.8 11.8 9.55 12.31 9.33 12.81 9.14 13.29 9.09"/><path class="cls-2" d="M0,7.81l0-.35L12.26.1,26.09,3.75l.07.36-6.71,4,.71,1.6.06.22L7.4,11.83a1.42,1.42,0,0,1-.06-.51c0-.14,1.6-5.44,1.6-5.44L6.41,7.21,0,7.81"/><path d="M20.13,9.83a1.06,1.06,0,0,0-.4-.12,8.79,8.79,0,0,0-1.5,0c-.62,0-1.35.08-2.12.16L14.92,10l-1.23.16-1.23.18-1.18.2-1.1.22L9.2,11a8.77,8.77,0,0,0-1.43.46,1.06,1.06,0,0,0-.35.22.19.19,0,0,0-.06.13c.07.5,3,.5,6.55,0s6.36-1.31,6.29-1.82A.19.19,0,0,0,20.13,9.83Z"/><path d="M26.15,4.11,12.32.46,0,7.81l7,1.86.3,2.1a.2.2,0,0,1,0-.14,1,1,0,0,1,.33-.27,7.16,7.16,0,0,1,1.4-.59c.3-.1.63-.19,1-.29s.72-.18,1.1-.26S12,10,12.41,10l1.23-.2,1.24-.15c.41,0,.81-.08,1.21-.1a21.4,21.4,0,0,1,2.15,0,7.15,7.15,0,0,1,1.51.18,1,1,0,0,1,.39.17.2.2,0,0,1,.08.13l-.87-4.42a.42.42,0,0,0-.28-.32,16.77,16.77,0,0,0-6.13-.39c3.49-.61,6.48-.5,6.55,0l.43,3Z"/><path d="M0,7.45Q3,5.56,6.1,3.72L12.22,0l0,0h0l6.91,1.85,3.45.94,3.45,1-3.47-.87L19.17,2,12.25.2h.07L6.17,3.84Q3.09,5.66,0,7.45Z"/><path d="M30.37,13.05c-3.85-.33-7.78-4.7-8.21-7.27l.38-.06c.41,2.46,4.17,6.64,7.86,7Z"/><circle cx="30.4" cy="12.85" r="0.4" transform="translate(-2.46 16) rotate(-28.4)"/><path d="M30.34,12.73l3-1.44a3.07,3.07,0,0,1,.16,3.26L30.38,13Z"/></g></g></svg>