<svg xmlns="http://www.w3.org/2000/svg" viewBox="0 0 5.67 5.65"><defs><style>.cls-1{fill:#fff;}.cls-2{fill:#009e42;}</style></defs><title>sbahnElement 4</title><g id="Ebene_2" data-name="Ebene 2"><g id="Bahn"><path class="cls-1" d="M4,2.6c-.87-.48-1.34-.26-1.82-.71-.29-.27-.13-.77.5-.75a2.79,2.79,0,0,1,1.59.75V1.12A2.27,2.27,0,0,0,1.68.88a1.28,1.28,0,0,0,.25,2.29c.58.24,1.06.27,1.34.39s.5.76-.3.91a2.05,2.05,0,0,1-1.84-.92v.89a2.18,2.18,0,0,0,3.26-.17A1.23,1.23,0,0,0,4,2.6"/><path class="cls-1" d="M2.84,5.65A2.83,2.83,0,1,1,5.67,2.83,2.83,2.83,0,0,1,2.84,5.65"/><path class="cls-2" d="M2.84,0A2.83,2.83,0,1,0,5.67,2.83,2.83,2.83,0,0,0,2.84,0M4.39,4.27a2.18,2.18,0,0,1-3.26.17V3.55A2.06,2.06,0,0,0,3,4.47c.81-.14.62-.77.3-.91s-.76-.15-1.34-.39A1.28,1.28,0,0,1,1.68.88a2.27,2.27,0,0,1,2.61.24v.77A2.81,2.81,0,0,0,2.7,1.13c-.63,0-.79.48-.5.75.48.46,1,.23,1.82.71a1.23,1.23,0,0,1,.37,1.67"/></g></g></svg>