<?xml version="1.0" encoding="utf-8"?><svg xmlns="http://www.w3.org/2000/svg" xmlns:xlink="http://www.w3.org/1999/xlink"><symbol viewBox="0 0 88.65 71.33" id="blasen" xmlns="http://www.w3.org/2000/svg"><g data-name="Ebene 2"><g data-name="Ebene 1" fill="none" stroke="red" stroke-linecap="round" stroke-miterlimit="10" stroke-width="2.8"><path d="M87.25 26.13C87.25 12.47 72.84 1.4 55 1.4S22.84 12.47 22.84 26.13 37.26 50.85 55 50.85a40.84 40.84 0 0 0 11.62-1.66l17.12 9.06-4.13-16.14c4.77-4.31 7.64-9.89 7.64-15.98z"/><path d="M46.15 58.51a35.17 35.17 0 0 1-16.72 4 37.37 37.37 0 0 1-10.12-1.38L4.42 68.67l3.63-13.36C3.91 51.74 1.4 47.13 1.4 42.08c0-7.06 4.9-13.29 12.36-17"/></g></g></symbol><symbol viewBox="0 0 32 32" id="close" xmlns="http://www.w3.org/2000/svg"><path d="M7.219 5.781L5.78 7.22 14.563 16 5.78 24.781l1.44 1.439L16 17.437l8.781 8.782 1.438-1.438L17.437 16l8.782-8.781L24.78 5.78 16 14.563z"/></symbol><symbol viewBox="0 0 82.8 82.8" id="globus" xmlns="http://www.w3.org/2000/svg"><g data-name="Ebene 2"><g data-name="Ebene 1" fill="none" stroke="#e6007e" stroke-linecap="round" stroke-miterlimit="10" stroke-width="2.8"><circle cx="41.4" cy="41.4" r="40"/><path d="M15.75 11.17s-5.61 10.89-5.61 15.47 3.95 13 5.81 14.71S31.94 53 33.18 53s-1 4-1 6.68 3.94 7.83 5.39 8.6 2.29 5 .62 8-.78 4-.78 4l6.83 1s11-7.26 11.59-9.55 14.33-7.83 12.46-12.41-5.81-1.14-9.76-2.1S56 52.42 52.08 52s-5.4-3-10.18-2.83-6.65 3.25-8.72 2.1-5.61-6.3-5.4-9.36-7.68 3.82-7.68-1.14 6.64-9.93 9.13-8 5.19 6.49 4.77 4.2 10-14.54 15.38-15.11-4.15-5.92-7.06-7.26.83-4.58 2.49-4 8.51-1.15 6.64-3.06S41.4 1.4 41.4 1.4m10.47 1.93c1.66 1.91 9.55 8.6 10 10.31s5.6 3.44 6.44 4.39 3.32 22.35 4.36 24.07 6.56 7.09 6.77 7.66 1.95-9.95 1.95-10.9"/></g></g></symbol><symbol viewBox="0 0 60.32 95.39" id="gluehbirne" xmlns="http://www.w3.org/2000/svg"><g data-name="Ebene 2"><path d="M19.66 82.25a1.11 1.11 0 0 0 1.05 1.11h1.42a38.31 38.31 0 0 0 17.6-4.25 1.9 1.9 0 0 0 .93-1.55M19.71 87.69a1.28 1.28 0 0 0 1.2 1.07h1.22a38.32 38.32 0 0 0 17.6-4.25 1.91 1.91 0 0 0 .93-1.51M26 92.15a5.52 5.52 0 0 0 9.41-2.1M20.71 78h1.42a38.41 38.41 0 0 0 13.51-2.44 16.25 16.25 0 0 0 1.74-.71c.8-.34 1.58-.71 2.34-1.11a1.8 1.8 0 0 0 .74-.81 16.31 16.31 0 0 0 6.18-13c0-9.41 12.28-15.17 12.28-29.81a28.76 28.76 0 1 0-57.52 0C1.4 45 13.68 51.36 13.68 60a16.69 16.69 0 0 0 6 12.55" data-name="Ebene 1" fill="none" stroke="#ff7200" stroke-linecap="round" stroke-miterlimit="10" stroke-width="2.8"/></g></symbol><symbol viewBox="0 0 46.04 110.42" id="mensch" xmlns="http://www.w3.org/2000/svg"><g data-name="Ebene 2"><path d="M23 1.4a8.36 8.36 0 0 0-8.26 8.45 8.26 8.26 0 1 0 16.51 0A8.36 8.36 0 0 0 23 1.4zm3.62 22.9h-7.2a18 18 0 0 0-18 18v20.19A5.39 5.39 0 0 0 6.8 67.9a5.4 5.4 0 0 1 5.38 5.41v30.32a5.4 5.4 0 0 0 5.39 5.37h10.9a5.4 5.4 0 0 0 5.41-5.41V73.3a5.39 5.39 0 0 1 5.38-5.41 5.39 5.39 0 0 0 5.38-5.41V42.32A18 18 0 0 0 26.62 24.3z" data-name="Ebene 1" fill="none" stroke="#0ff" stroke-linecap="round" stroke-miterlimit="10" stroke-width="2.8"/></g></symbol><symbol viewBox="0 0 24 24" fill="currentColor" id="minus" xmlns="http://www.w3.org/2000/svg"><path d="M5 11v2h14v-2z"/></symbol><symbol viewBox="0 0 24 24" fill="currentColor" id="plus" xmlns="http://www.w3.org/2000/svg"><path d="M11 5v6H5v2h6v6h2v-6h6v-2h-6V5z"/></symbol><symbol viewBox="0 0 407.436 407.436" fill="currentColor" id="right-chevron" xmlns="http://www.w3.org/2000/svg"><path d="M112.814 0L91.566 21.178l181.946 182.54-181.946 182.54 21.248 21.178 203.055-203.718z"/></symbol><symbol viewBox="0 0 80.8 80.8" id="uhr" xmlns="http://www.w3.org/2000/svg"><g data-name="Ebene 2"><g data-name="Ebene 1" fill="none" stroke="#ff0" stroke-linecap="round" stroke-miterlimit="10" stroke-width="2.8"><circle cx="40.4" cy="40.4" r="39"/><path d="M37.19 15.63v27.22l13.55 10.58"/></g></g></symbol><symbol viewBox="0 0 97.93 79.24" id="zahnrad" xmlns="http://www.w3.org/2000/svg"><g data-name="Ebene 2"><path d="M81 51.88c-.37.31-.75.6-1.14.87s-.77.56-1.18.82c-.67.42-1 2.37-.92 4.41a5.22 5.22 0 0 1-9.63 2.8c-1-1.75-2.36-3.23-3.15-3.22-.48 0-1 0-1.44-.06s-1-.06-1.43-.12c-.79-.1-2.28 1.18-3.55 2.79a5.6 5.6 0 0 1-6.12 1.43 5.54 5.54 0 0 1-3.07-5.46c.34-2 .27-4-.32-4.48-.36-.31-.72-.64-1.06-1a11.68 11.68 0 0 1-1-1c-.53-.59-2.53-.55-4.53-.13a5.58 5.58 0 0 1-5.6-2.83A5.51 5.51 0 0 1 38 40.55c1.56-1.32 2.76-2.86 2.64-3.64-.08-.47-.13-.94-.2-1.41a11.48 11.48 0 0 1-.12-1.43c0-.79-1.58-2-3.39-3a5.55 5.55 0 0 1-2.47-5.76 5.55 5.55 0 0 1 4.88-4c2 0 4-.42 4.38-1.09.25-.41.51-.81.75-1.21s.55-.78.84-1.16c.48-.63.11-2.58-.67-4.46a5.53 5.53 0 0 1 1.82-6 5.59 5.59 0 0 1 6.3.07c1.57 1.3 3.32 2.24 4.07 2L58.17 9l1.39-.34c.77-.18 1.74-1.91 2.36-3.85a5.24 5.24 0 0 1 10 .65c.37 2 1.1 3.84 1.84 4.12.45.16.89.34 1.33.53l1.29.62c.71.35 2.56-.34 4.28-1.42a5.57 5.57 0 0 1 6.25.74 5.55 5.55 0 0 1 1 6.18c-1 1.78-1.64 3.66-1.24 4.34a11.33 11.33 0 0 1 .67 1.27c.21.43.41.86.6 1.3.31.72 2.17 1.38 4.19 1.65a5.55 5.55 0 0 1 4.31 4.56 5.55 5.55 0 0 1-3.2 5.39c-1.92.72-3.62 1.76-3.75 2.53a12 12 0 0 1-.3 1.4c-.12.46-.24.92-.38 1.38-.23.76.77 2.44 2.14 4a5.53 5.53 0 0 1 .36 6.25 5.6 5.6 0 0 1-5.94 2.06c-1.85-.7-3.81-.99-4.37-.48zm-5.43-5A17.47 17.47 0 0 0 80.9 25a17.62 17.62 0 0 0-8.69-8.3 17.62 17.62 0 0 0-21.71 6.31 17.57 17.57 0 0 0 25 23.87zm-51.36-4.51a4.9 4.9 0 0 1 5.79-2.1 4.85 4.85 0 0 1 2.35 5.66c-.71 2.06-1.2 4-.79 4.43.25.28.48.57.7.88s.43.61.63.93c.33.53 2.28.64 4.47.59a4.89 4.89 0 0 1 4.72 3.94 4.88 4.88 0 0 1-3.76 4.86c-2.14.42-4 .95-4.24 1.53-.12.35-.27.7-.41 1a10.71 10.71 0 0 1-.5 1c-.3.54.59 2.3 1.73 4.16a4.85 4.85 0 0 1-1.07 6 4.9 4.9 0 0 1-6.1-.81c-1.44-1.64-2.84-3-3.45-2.9-.37.07-.74.12-1.12.18s-.75.05-1.13.06c-.62 0-1.69 1.66-2.74 3.57a4.9 4.9 0 0 1-5.79 2.1 4.86 4.86 0 0 1-2.34-5.67c.71-2.06 1.2-4 .79-4.43-.25-.28-.49-.57-.7-.87s-.43-.62-.63-.93c-.33-.53-2.29-.64-4.47-.59a4.89 4.89 0 0 1-4.72-3.94 4.88 4.88 0 0 1 3.76-4.86c2.14-.42 4-.95 4.24-1.53.12-.35.27-.7.41-1a10.92 10.92 0 0 1 .5-1c.3-.54-.59-2.3-1.73-4.15a4.85 4.85 0 0 1 1.07-6 4.91 4.91 0 0 1 6.11.8c1.43 1.64 2.84 3 3.45 2.9l1.1-.18 1.12-.06c.63-.02 1.7-1.66 2.75-3.57zm-3.08 10.86a5.76 5.76 0 0 0-4.62 3.39 5.68 5.68 0 0 0 .62 5.65A5.72 5.72 0 0 0 27 61.2a5.7 5.7 0 0 0-.62-5.66 5.78 5.78 0 0 0-5.25-2.31z" data-name="Ebene 1" fill="none" stroke="#0f0" stroke-linecap="round" stroke-miterlimit="10" stroke-width="2.8"/></g></symbol><symbol viewBox="0 0 32 32" id="zoom" xmlns="http://www.w3.org/2000/svg"><path d="M19 3C13.488 3 9 7.488 9 13c0 2.395.84 4.59 2.25 6.313L3.281 27.28l1.439 1.44 7.968-7.969A9.922 9.922 0 0 0 19 23c5.512 0 10-4.488 10-10S24.512 3 19 3zm0 2c4.43 0 8 3.57 8 8s-3.57 8-8 8-8-3.57-8-8 3.57-8 8-8z"/></symbol></svg>