<?xml version="1.0" encoding="utf-8"?><svg xmlns="http://www.w3.org/2000/svg" xmlns:xlink="http://www.w3.org/1999/xlink"><symbol viewBox="0 0 32 32" id="close" xmlns="http://www.w3.org/2000/svg"><path d="M7.219 5.781L5.78 7.22 14.563 16 5.78 24.781 7.22 26.22 16 17.437l8.781 8.782 1.438-1.438L17.437 16l8.782-8.781L24.78 5.78 16 14.563z"/></symbol><symbol viewBox="0 0 24 24" fill="currentColor" id="minus" xmlns="http://www.w3.org/2000/svg"><path d="M5 11v2h14v-2z"/></symbol><symbol viewBox="0 0 24 24" fill="currentColor" id="plus" xmlns="http://www.w3.org/2000/svg"><path d="M11 5v6H5v2h6v6h2v-6h6v-2h-6V5z"/></symbol><symbol viewBox="0 0 407.436 407.436" fill="currentColor" id="right-chevron" xmlns="http://www.w3.org/2000/svg"><path d="M112.814 0L91.566 21.178l181.946 182.54-181.946 182.54 21.248 21.178 203.055-203.718z"/></symbol><symbol viewBox="0 0 32 32" id="zoom" xmlns="http://www.w3.org/2000/svg"><path d="M19 3C13.488 3 9 7.488 9 13c0 2.395.84 4.59 2.25 6.313L3.281 27.28 4.72 28.72l7.968-7.969A9.922 9.922 0 0 0 19 23c5.512 0 10-4.488 10-10S24.512 3 19 3zm0 2c4.43 0 8 3.57 8 8s-3.57 8-8 8-8-3.57-8-8 3.57-8 8-8z"/></symbol></svg>