<svg xmlns="http://www.w3.org/2000/svg" viewBox="0 0 82.8 82.8"><g data-name="Ebene 2"><g data-name="Ebene 1" fill="none" stroke="#e6007e" stroke-linecap="round" stroke-miterlimit="10" stroke-width="2.8"><circle cx="41.4" cy="41.4" r="40"/><path d="M15.75 11.17s-5.61 10.89-5.61 15.47 3.95 13 5.81 14.71S31.94 53 33.18 53s-1 4-1 6.68 3.94 7.83 5.39 8.6 2.29 5 .62 8-.78 4-.78 4l6.83 1s11-7.26 11.59-9.55 14.33-7.83 12.46-12.41-5.81-1.14-9.76-2.1S56 52.42 52.08 52s-5.4-3-10.18-2.83-6.65 3.25-8.72 2.1-5.61-6.3-5.4-9.36-7.68 3.82-7.68-1.14 6.64-9.93 9.13-8 5.19 6.49 4.77 4.2 10-14.54 15.38-15.11-4.15-5.92-7.06-7.26.83-4.58 2.49-4 8.51-1.15 6.64-3.06S41.4 1.4 41.4 1.4m10.47 1.93c1.66 1.91 9.55 8.6 10 10.31s5.6 3.44 6.44 4.39 3.32 22.35 4.36 24.07 6.56 7.09 6.77 7.66 1.95-9.95 1.95-10.9"/></g></g></svg>