<svg xmlns="http://www.w3.org/2000/svg" viewBox="0 0 60.32 95.39"><g data-name="Ebene 2"><path d="M19.66 82.25a1.11 1.11 0 0 0 1.05 1.11h1.42a38.31 38.31 0 0 0 17.6-4.25 1.9 1.9 0 0 0 .93-1.55M19.71 87.69a1.28 1.28 0 0 0 1.2 1.07h1.22a38.32 38.32 0 0 0 17.6-4.25 1.91 1.91 0 0 0 .93-1.51M26 92.15a5.52 5.52 0 0 0 9.41-2.1M20.71 78h1.42a38.41 38.41 0 0 0 13.51-2.44 16.25 16.25 0 0 0 1.74-.71c.8-.34 1.58-.71 2.34-1.11a1.8 1.8 0 0 0 .74-.81 16.31 16.31 0 0 0 6.18-13c0-9.41 12.28-15.17 12.28-29.81a28.76 28.76 0 1 0-57.52 0C1.4 45 13.68 51.36 13.68 60a16.69 16.69 0 0 0 6 12.55" data-name="Ebene 1" fill="none" stroke="#ff7200" stroke-linecap="round" stroke-miterlimit="10" stroke-width="2.8"/></g></svg>