<svg xmlns="http://www.w3.org/2000/svg" viewBox="0 0 46.04 110.42"><g data-name="Ebene 2"><path d="M23 1.4a8.36 8.36 0 0 0-8.26 8.45 8.26 8.26 0 1 0 16.51 0A8.36 8.36 0 0 0 23 1.4zm3.62 22.9h-7.2a18 18 0 0 0-18 18v20.19A5.39 5.39 0 0 0 6.8 67.9a5.4 5.4 0 0 1 5.38 5.41v30.32a5.4 5.4 0 0 0 5.39 5.37h10.9a5.4 5.4 0 0 0 5.41-5.41V73.3a5.39 5.39 0 0 1 5.38-5.41 5.39 5.39 0 0 0 5.38-5.41V42.32A18 18 0 0 0 26.62 24.3z" data-name="Ebene 1" fill="none" stroke="#0ff" stroke-linecap="round" stroke-miterlimit="10" stroke-width="2.8"/></g></svg>