<svg xmlns="http://www.w3.org/2000/svg" viewBox="0 0 97.93 79.24"><g data-name="Ebene 2"><path d="M81 51.88c-.37.31-.75.6-1.14.87s-.77.56-1.18.82c-.67.42-1 2.37-.92 4.41a5.22 5.22 0 0 1-9.63 2.8c-1-1.75-2.36-3.23-3.15-3.22-.48 0-1 0-1.44-.06s-1-.06-1.43-.12c-.79-.1-2.28 1.18-3.55 2.79a5.6 5.6 0 0 1-6.12 1.43 5.54 5.54 0 0 1-3.07-5.46c.34-2 .27-4-.32-4.48-.36-.31-.72-.64-1.06-1a11.68 11.68 0 0 1-1-1c-.53-.59-2.53-.55-4.53-.13a5.58 5.58 0 0 1-5.6-2.83A5.51 5.51 0 0 1 38 40.55c1.56-1.32 2.76-2.86 2.64-3.64-.08-.47-.13-.94-.2-1.41a11.48 11.48 0 0 1-.12-1.43c0-.79-1.58-2-3.39-3a5.55 5.55 0 0 1-2.47-5.76 5.55 5.55 0 0 1 4.88-4c2 0 4-.42 4.38-1.09.25-.41.51-.81.75-1.21s.55-.78.84-1.16c.48-.63.11-2.58-.67-4.46a5.53 5.53 0 0 1 1.82-6 5.59 5.59 0 0 1 6.3.07c1.57 1.3 3.32 2.24 4.07 2L58.17 9l1.39-.34c.77-.18 1.74-1.91 2.36-3.85a5.24 5.24 0 0 1 10 .65c.37 2 1.1 3.84 1.84 4.12.45.16.89.34 1.33.53l1.29.62c.71.35 2.56-.34 4.28-1.42a5.57 5.57 0 0 1 6.25.74 5.55 5.55 0 0 1 1 6.18c-1 1.78-1.64 3.66-1.24 4.34a11.33 11.33 0 0 1 .67 1.27c.21.43.41.86.6 1.3.31.72 2.17 1.38 4.19 1.65a5.55 5.55 0 0 1 4.31 4.56 5.55 5.55 0 0 1-3.2 5.39c-1.92.72-3.62 1.76-3.75 2.53a12 12 0 0 1-.3 1.4c-.12.46-.24.92-.38 1.38-.23.76.77 2.44 2.14 4a5.53 5.53 0 0 1 .36 6.25 5.6 5.6 0 0 1-5.94 2.06c-1.85-.7-3.81-.99-4.37-.48zm-5.43-5A17.47 17.47 0 0 0 80.9 25a17.62 17.62 0 0 0-8.69-8.3 17.62 17.62 0 0 0-21.71 6.31 17.57 17.57 0 0 0 25 23.87zm-51.36-4.51a4.9 4.9 0 0 1 5.79-2.1 4.85 4.85 0 0 1 2.35 5.66c-.71 2.06-1.2 4-.79 4.43.25.28.48.57.7.88s.43.61.63.93c.33.53 2.28.64 4.47.59a4.89 4.89 0 0 1 4.72 3.94 4.88 4.88 0 0 1-3.76 4.86c-2.14.42-4 .95-4.24 1.53-.12.35-.27.7-.41 1a10.71 10.71 0 0 1-.5 1c-.3.54.59 2.3 1.73 4.16a4.85 4.85 0 0 1-1.07 6 4.9 4.9 0 0 1-6.1-.81c-1.44-1.64-2.84-3-3.45-2.9-.37.07-.74.12-1.12.18s-.75.05-1.13.06c-.62 0-1.69 1.66-2.74 3.57a4.9 4.9 0 0 1-5.79 2.1 4.86 4.86 0 0 1-2.34-5.67c.71-2.06 1.2-4 .79-4.43-.25-.28-.49-.57-.7-.87s-.43-.62-.63-.93c-.33-.53-2.29-.64-4.47-.59a4.89 4.89 0 0 1-4.72-3.94 4.88 4.88 0 0 1 3.76-4.86c2.14-.42 4-.95 4.24-1.53.12-.35.27-.7.41-1a10.92 10.92 0 0 1 .5-1c.3-.54-.59-2.3-1.73-4.15a4.85 4.85 0 0 1 1.07-6 4.91 4.91 0 0 1 6.11.8c1.43 1.64 2.84 3 3.45 2.9l1.1-.18 1.12-.06c.63-.02 1.7-1.66 2.75-3.57zm-3.08 10.86a5.76 5.76 0 0 0-4.62 3.39 5.68 5.68 0 0 0 .62 5.65A5.72 5.72 0 0 0 27 61.2a5.7 5.7 0 0 0-.62-5.66 5.78 5.78 0 0 0-5.25-2.31z" data-name="Ebene 1" fill="none" stroke="#0f0" stroke-linecap="round" stroke-miterlimit="10" stroke-width="2.8"/></g></svg>