<?xml version="1.0" encoding="utf-8"?>
<!-- Generator: Adobe Illustrator 19.2.0, SVG Export Plug-In . SVG Version: 6.00 Build 0)  -->
<svg version="1.1" id="Layer_1" xmlns="http://www.w3.org/2000/svg" xmlns:xlink="http://www.w3.org/1999/xlink" x="0px" y="0px"
	 viewBox="0 0 500 500" style="enable-background:new 0 0 500 500;" xml:space="preserve">
<style type="text/css">
	.st0{fill:#222222;}
</style>
<path class="st0" d="M457.9,445.7L346.7,334.5c13.7-15.2,24.9-32.5,32.5-51.8c8.6-20.8,12.7-43.1,12.7-66s-4.6-44.7-12.7-66
	c-8.6-21.8-21.8-41.1-38.6-57.9c-16.8-16.8-36.5-29.4-57.9-38.6c-20.8-8.6-43.1-12.7-66-12.7s-45.2,4.1-66,12.7
	c-21.8,8.6-41.1,21.8-57.9,38.6s-29.9,36-38.6,57.9c-8.6,20.8-12.7,43.1-12.7,66s4.6,44.7,12.7,66c8.6,21.8,21.8,41.1,38.6,57.9
	c16.8,16.8,36.5,29.4,57.9,38.6c20.8,8.6,43.1,12.7,66,12.7s45.2-4.1,66-12.7c19.3-7.6,36.5-18.8,51.8-32.5l111.2,111.2
	c1.5,1.5,4.1,2.5,6.1,2.5c2,0,4.6-1,6.1-2.5C461.5,454.3,461.5,449.2,457.9,445.7z M216.8,374.6c-42.1,0-82.2-16.2-112.2-46.2
	c-29.9-29.9-46.7-69.5-46.7-111.7s16.8-81.7,46.7-111.7s70.1-46.2,112.2-46.2S299,75.1,329,105.1c29.9,29.9,46.7,69.5,46.7,111.7
	s-16.8,81.7-46.7,111.7C299,358.4,258.9,374.6,216.8,374.6z"/>
</svg>
